<?xml version="1.0" encoding="UTF-8"?>
<!DOCTYPE svg PUBLIC "-//W3C//DTD SVG 1.1//EN" "http://www.w3.org/Graphics/SVG/1.1/DTD/svg11.dtd">
<svg version="1.1" xmlns="http://www.w3.org/2000/svg" xmlns:xlink="http://www.w3.org/1999/xlink" x="0" y="0" width="489.7" height="151" viewBox="0, 0, 489.7, 151">
  <g id="Layer_1" transform="translate(-147.989, -200)">
    <path d="M225.989,200 C269.067,200 303.989,233.802 303.989,275.5 C303.989,317.197 269.067,351 225.989,351 C182.911,351 147.989,317.197 147.989,275.5 C147.989,233.802 182.911,200 225.989,200 L225.989,200 z M253.345,294.984 C235.857,300.019 216.274,300.811 198.634,295.735 L198.634,306.676 C198.634,317.322 210.881,325.953 225.989,325.953 C241.097,325.953 253.345,317.322 253.345,306.676 L253.345,294.984 z M253.345,231.488 C239.462,231.488 228.207,242.382 228.207,255.82 C228.207,269.258 239.462,280.152 253.345,280.152 C267.228,280.152 278.482,269.258 278.482,255.82 C278.482,242.382 267.228,231.488 253.345,231.488 z M197.945,259.191 C187.292,259.547 169.538,266.662 175.764,273.065 C181.99,279.468 181.611,268.44 197.552,268.796 C213.494,269.152 213.403,278.401 218.374,273.421 C223.345,268.441 208.597,258.836 197.945,259.191 z" fill="#000000"/>
    <path d="M253.345,264.765 C248.241,264.765 244.103,260.76 244.103,255.82 C244.103,250.879 248.241,246.874 253.345,246.874 C258.449,246.874 262.586,250.879 262.586,255.82 C262.586,260.76 258.449,264.765 253.345,264.765 z" fill="#000000"/>
    <path d="M364.839,296 Q366.489,296.3 368.889,296.525 Q371.289,296.75 373.389,296.75 Q378.489,296.75 382.764,295.25 Q387.039,293.75 390.114,290.6 Q393.189,287.45 394.914,282.425 Q396.639,277.4 396.639,270.35 Q396.639,256.85 390.339,250.025 Q384.039,243.2 373.539,243.2 Q371.439,243.2 369.264,243.35 Q367.089,243.5 364.839,243.8 z M373.239,317.9 Q370.689,317.9 367.389,317.75 Q364.089,317.6 360.564,317.15 Q357.039,316.7 353.514,316.025 Q349.989,315.35 346.989,314.15 Q338.739,311 338.739,303.2 L338.739,233.15 Q338.739,230 340.464,228.275 Q342.189,226.55 345.189,225.5 Q351.639,223.4 358.839,222.725 Q366.039,222.05 371.739,222.05 Q383.439,222.05 392.964,224.9 Q402.489,227.75 409.314,233.675 Q416.139,239.6 419.889,248.6 Q423.639,257.6 423.639,269.9 Q423.639,281.9 420.039,290.825 Q416.439,299.75 409.764,305.825 Q403.089,311.9 393.789,314.9 Q384.489,317.9 373.239,317.9 z" fill="#000000"/>
    <path d="M436.089,222.35 Q436.089,216.65 439.914,212.75 Q443.739,208.85 450.039,208.85 Q456.339,208.85 460.164,212.75 Q463.989,216.65 463.989,222.35 Q463.989,228.05 460.164,231.95 Q456.339,235.85 450.039,235.85 Q443.739,235.85 439.914,231.95 Q436.089,228.05 436.089,222.35 z M462.789,315.35 Q461.139,315.65 457.914,316.175 Q454.689,316.7 451.389,316.7 Q448.089,316.7 445.464,316.25 Q442.839,315.8 441.039,314.45 Q439.239,313.1 438.264,310.775 Q437.289,308.45 437.289,304.7 L437.289,243.65 Q438.939,243.35 442.164,242.825 Q445.389,242.3 448.689,242.3 Q451.989,242.3 454.614,242.75 Q457.239,243.2 459.039,244.55 Q460.839,245.9 461.814,248.225 Q462.789,250.55 462.789,254.3 z" fill="#000000"/>
    <path d="M479.289,217.85 Q480.789,217.4 484.089,216.875 Q487.389,216.35 490.839,216.35 Q494.139,216.35 496.764,216.8 Q499.389,217.25 501.189,218.6 Q502.989,219.95 503.889,222.275 Q504.789,224.6 504.789,228.35 L504.789,243.05 Q508.539,241.55 511.914,240.95 Q515.289,240.35 519.339,240.35 Q526.539,240.35 532.989,242.9 Q539.439,245.45 544.389,250.325 Q549.339,255.2 552.189,262.4 Q555.039,269.6 555.039,279.05 Q555.039,288.8 552.114,296.075 Q549.189,303.35 543.939,308.15 Q538.689,312.95 531.114,315.425 Q523.539,317.9 514.389,317.9 Q504.489,317.9 497.589,315.575 Q490.689,313.25 485.889,309.8 Q479.289,305.15 479.289,297.8 z M514.389,297.8 Q521.289,297.8 525.114,293.075 Q528.939,288.35 528.939,279.05 Q528.939,269.6 525.039,264.95 Q521.139,260.3 514.539,260.3 Q511.539,260.3 509.364,260.9 Q507.189,261.5 504.639,262.7 L504.639,295.4 Q506.289,296.45 508.614,297.125 Q510.939,297.8 514.389,297.8 z" fill="#000000"/>
    <path d="M604.389,245.6 L567.489,245.6 Q566.439,243.95 565.539,241.1 Q564.639,238.25 564.639,235.1 Q564.639,229.25 567.264,226.7 Q569.889,224.15 574.089,224.15 L630.039,224.15 Q636.639,229.55 636.639,238.55 Q636.639,242.3 634.914,245.975 Q633.189,249.65 630.489,252.95 L596.439,294.05 L634.839,294.05 Q635.889,295.7 636.789,298.55 Q637.689,301.4 637.689,304.55 Q637.689,310.4 635.064,312.95 Q632.439,315.5 628.239,315.5 L569.139,315.5 Q566.589,313.4 564.939,309.8 Q563.289,306.2 563.289,301.55 Q563.289,297.8 565.239,293.9 Q567.189,290 569.889,286.7 z" fill="#000000"/>
  </g>
</svg>
