<?xml version="1.0" encoding="UTF-8"?>
<!DOCTYPE svg PUBLIC "-//W3C//DTD SVG 1.1//EN" "http://www.w3.org/Graphics/SVG/1.1/DTD/svg11.dtd">
<svg version="1.1" xmlns="http://www.w3.org/2000/svg" xmlns:xlink="http://www.w3.org/1999/xlink" x="0" y="0" width="489.7" height="151" viewBox="0, 0, 489.7, 151">
  <g id="Layer_1" transform="translate(-139.15, -402)">
    <path d="M217.15,402 C260.228,402 295.15,435.803 295.15,477.5 C295.15,519.198 260.228,553 217.15,553 C174.072,553 139.15,519.198 139.15,477.5 C139.15,435.803 174.072,402 217.15,402 L217.15,402 z M244.505,496.984 C227.017,502.019 207.435,502.811 189.795,497.735 L189.795,508.676 C189.795,519.322 202.042,527.953 217.15,527.953 C232.258,527.953 244.505,519.322 244.505,508.676 L244.505,496.984 z M244.505,433.488 C230.622,433.488 219.368,444.382 219.368,457.82 C219.368,471.258 230.622,482.152 244.505,482.152 C258.388,482.152 269.643,471.258 269.643,457.82 C269.643,444.382 258.388,433.488 244.505,433.488 z M189.106,461.191 C178.453,461.547 160.699,468.662 166.925,475.065 C173.15,481.468 172.772,470.44 188.713,470.796 C204.654,471.152 204.564,480.401 209.535,475.421 C214.506,470.441 199.758,460.836 189.106,461.191 z" fill="#FFFFFF"/>
    <path d="M244.505,466.765 C239.401,466.765 235.264,462.76 235.264,457.82 C235.264,452.879 239.401,448.874 244.505,448.874 C249.609,448.874 253.747,452.879 253.747,457.82 C253.747,462.76 249.609,466.765 244.505,466.765 z" fill="#FFFFFF"/>
    <path d="M356,498 Q357.65,498.3 360.05,498.525 Q362.45,498.75 364.55,498.75 Q369.65,498.75 373.925,497.25 Q378.2,495.75 381.275,492.6 Q384.35,489.45 386.075,484.425 Q387.8,479.4 387.8,472.35 Q387.8,458.85 381.5,452.025 Q375.2,445.2 364.7,445.2 Q362.6,445.2 360.425,445.35 Q358.25,445.5 356,445.8 z M364.4,519.9 Q361.85,519.9 358.55,519.75 Q355.25,519.6 351.725,519.15 Q348.2,518.7 344.675,518.025 Q341.15,517.35 338.15,516.15 Q329.9,513 329.9,505.2 L329.9,435.15 Q329.9,432 331.625,430.275 Q333.35,428.55 336.35,427.5 Q342.8,425.4 350,424.725 Q357.2,424.05 362.9,424.05 Q374.6,424.05 384.125,426.9 Q393.65,429.75 400.475,435.675 Q407.3,441.6 411.05,450.6 Q414.8,459.6 414.8,471.9 Q414.8,483.9 411.2,492.825 Q407.6,501.75 400.925,507.825 Q394.25,513.9 384.95,516.9 Q375.65,519.9 364.4,519.9 z" fill="#FFFFFF"/>
    <path d="M427.25,424.35 Q427.25,418.65 431.075,414.75 Q434.9,410.85 441.2,410.85 Q447.5,410.85 451.325,414.75 Q455.15,418.65 455.15,424.35 Q455.15,430.05 451.325,433.95 Q447.5,437.85 441.2,437.85 Q434.9,437.85 431.075,433.95 Q427.25,430.05 427.25,424.35 z M453.95,517.35 Q452.3,517.65 449.075,518.175 Q445.85,518.7 442.55,518.7 Q439.25,518.7 436.625,518.25 Q434,517.8 432.2,516.45 Q430.4,515.1 429.425,512.775 Q428.45,510.45 428.45,506.7 L428.45,445.65 Q430.1,445.35 433.325,444.825 Q436.55,444.3 439.85,444.3 Q443.15,444.3 445.775,444.75 Q448.4,445.2 450.2,446.55 Q452,447.9 452.975,450.225 Q453.95,452.55 453.95,456.3 z" fill="#FFFFFF"/>
    <path d="M470.45,419.85 Q471.95,419.4 475.25,418.875 Q478.55,418.35 482,418.35 Q485.3,418.35 487.925,418.8 Q490.55,419.25 492.35,420.6 Q494.15,421.95 495.05,424.275 Q495.95,426.6 495.95,430.35 L495.95,445.05 Q499.7,443.55 503.075,442.95 Q506.45,442.35 510.5,442.35 Q517.7,442.35 524.15,444.9 Q530.6,447.45 535.55,452.325 Q540.5,457.2 543.35,464.4 Q546.2,471.6 546.2,481.05 Q546.2,490.8 543.275,498.075 Q540.35,505.35 535.1,510.15 Q529.85,514.95 522.275,517.425 Q514.7,519.9 505.55,519.9 Q495.65,519.9 488.75,517.575 Q481.85,515.25 477.05,511.8 Q470.45,507.15 470.45,499.8 z M505.55,499.8 Q512.45,499.8 516.275,495.075 Q520.1,490.35 520.1,481.05 Q520.1,471.6 516.2,466.95 Q512.3,462.3 505.7,462.3 Q502.7,462.3 500.525,462.9 Q498.35,463.5 495.8,464.7 L495.8,497.4 Q497.45,498.45 499.775,499.125 Q502.1,499.8 505.55,499.8 z" fill="#FFFFFF"/>
    <path d="M595.55,447.6 L558.65,447.6 Q557.6,445.95 556.7,443.1 Q555.8,440.25 555.8,437.1 Q555.8,431.25 558.425,428.7 Q561.05,426.15 565.25,426.15 L621.2,426.15 Q627.8,431.55 627.8,440.55 Q627.8,444.3 626.075,447.975 Q624.35,451.65 621.65,454.95 L587.6,496.05 L626,496.05 Q627.05,497.7 627.95,500.55 Q628.85,503.4 628.85,506.55 Q628.85,512.4 626.225,514.95 Q623.6,517.5 619.4,517.5 L560.3,517.5 Q557.75,515.4 556.1,511.8 Q554.45,508.2 554.45,503.55 Q554.45,499.8 556.4,495.9 Q558.35,492 561.05,488.7 z" fill="#FFFFFF"/>
  </g>
</svg>
