<?xml version="1.0" encoding="UTF-8"?>
<!DOCTYPE svg PUBLIC "-//W3C//DTD SVG 1.1//EN" "http://www.w3.org/Graphics/SVG/1.1/DTD/svg11.dtd">
<svg version="1.1" xmlns="http://www.w3.org/2000/svg" xmlns:xlink="http://www.w3.org/1999/xlink" x="0" y="0" width="697.407" height="253.794" viewBox="0, 0, 697.407, 253.794">
  <g id="Layer_2" transform="translate(-37.296, -385.103)">
    <path d="M67.852,395.624 C94.186,379.29 267.186,382.36 291.852,402.159 C316.519,421.958 307.186,475.623 306.852,494.624 C306.519,513.624 301.186,574.046 283.186,597.502 C265.186,620.958 75.186,615.38 56.852,597.502 C38.519,579.624 35.398,534.58 38.186,495.957 C40.973,457.334 41.519,411.957 67.852,395.624 z" fill="#000000"/>
    <path d="M70.335,411.547 C87.186,397.548 266.669,395.881 281.002,420.547 C287.667,432.017 284.852,449.214 282.852,498.214 C280.852,547.214 281.975,572.754 273.335,584.881 C257.186,607.548 82.818,593.214 64.002,579.547 C54.387,572.564 49.852,525.214 52.186,492.881 C54.519,460.548 53.485,425.547 70.335,411.547 z" fill="#A59BFF"/>
    <path d="M176.852,458.958 C180.853,494.958 146.519,518.625 122.186,522.625 C97.852,526.624 66.519,507.625 63.852,478.291 C61.186,448.958 93.519,420.958 115.852,418.625 C138.186,416.291 172.852,422.958 176.852,458.958 z" fill="#000000"/>
    <path d="M170.852,459.958 C174.148,490.469 144.564,508.234 124.519,511.624 C104.474,515.014 77.049,503.486 74.852,478.624 C72.656,453.763 99.455,430.602 117.852,428.624 C136.25,426.647 167.557,429.446 170.852,459.958 z" fill="#FFFFFF"/>
    <path d="M152.519,461.624 C159.42,470.14 154.924,479.535 149.852,484.291 C144.781,489.047 135.002,492.987 129.519,485.958 C124.036,478.928 126.643,466.984 131.519,462.958 C136.395,458.932 145.618,453.109 152.519,461.624 z" fill="#000000"/>
    <path d="M243.186,489.779 C243.186,489.779 243.186,489.779 243.186,489.779 C259.686,493.017 272.06,498.736 269.852,504.624 C265.852,515.291 245.352,503.541 228.686,502.541 C212.019,501.541 196.852,506.957 193.186,498.957 C189.519,490.957 201.769,478.791 219.436,464.791 C237.102,450.791 255.686,441.791 262.436,447.541 C269.186,453.291 238.186,467.541 231.186,473.791 C224.186,480.041 218.686,484.041 214.436,489.779 C218.686,486.791 243.186,489.779 243.186,489.779 z" fill="#000000"/>
    <path d="M99.686,547.291 C99.686,538.291 150.526,542.041 171.106,541.541 C191.686,541.041 248.186,538.791 249.186,547.041 C250.186,555.291 184.026,551.541 171.106,551.791 C158.186,552.041 99.686,556.291 99.686,547.291 z" fill="#000000"/>
    <path d="M128.741,543.374 C126.241,546.374 109.491,566.124 115.491,592.374 C121.491,618.624 134.991,637.874 166.491,638.874 C197.991,639.874 215.741,607.624 220.241,594.374 C224.741,581.124 222.741,554.124 213.991,545.374 C213.991,545.374 129.491,543.624 128.741,543.374 z" fill="#000000"/>
    <path d="M138.686,552.374 C138.061,552.749 130.436,570.624 131.811,583.749 C133.186,596.874 138.061,618.749 164.811,621.874 C191.561,624.999 205.686,597.249 208.561,584.124 C211.436,570.999 203.811,551.873 203.186,551.374 C202.561,550.874 174.436,551.374 173.936,551.749 C173.436,552.124 171.426,583.124 171.106,584.874 C170.786,586.624 170.036,589.6 168.436,589.749 C166.835,589.899 167.186,587.024 167.186,584.624 C167.186,582.224 168.561,552.623 168.186,551.999 C167.811,551.374 139.311,551.999 138.686,552.374 z" fill="#00FFFF"/>
    <path d="M388.268,426.949 C400.568,427.292 412.896,431.573 424.035,436.608 C453.535,449.941 471.841,482.543 471.535,507.992 C471.23,533.442 458.535,569.992 417.547,582.992 C376.559,595.992 353.535,579.492 353.535,579.492 C353.535,579.492 346.035,527.608 344.035,516.608 C342.035,505.608 336.535,438.992 336.535,438.992 C350.212,431.929 365.554,427.569 380.968,426.961 C383.399,426.865 385.835,426.953 388.268,426.949 z M384.906,456.836 C379.844,457.192 374.773,458.073 370.035,459.941 C370.035,459.941 374.702,496.607 376.035,506.941 C377.369,517.274 383.369,556.274 383.369,556.274 C383.369,556.274 393.035,558.607 411.369,552.274 C429.702,545.941 436.035,516.274 435.035,503.274 C434.035,490.274 425.702,472.274 407.702,461.941 C402.578,459.002 396.861,457.401 390.99,456.898 C388.969,456.725 386.934,456.857 384.906,456.836 z" fill="#000000"/>
    <path d="M530.85,457.935 C533.004,477.812 514.511,490.88 501.403,493.089 C488.296,495.297 471.418,484.806 469.982,468.61 C468.546,452.413 485.962,436.953 497.992,435.664 C510.022,434.376 528.695,438.057 530.85,457.935 z" fill="#000000"/>
    <path d="M481.702,506.274 C478.702,510.608 480.288,595.275 485.495,596.608 C490.702,597.941 518.035,596.608 522.702,590.941 C527.369,585.275 523.035,508.275 520.702,504.274 C518.369,500.274 484.702,501.941 481.702,506.274 z" fill="#000000"/>
    <path d="M639.036,444.274 C641.702,441.274 714.369,432.941 724.035,432.608 C733.702,432.274 734.369,442.275 734.702,446.608 C735.035,450.941 684.369,531.274 678.035,553.608 C688.702,550.941 711.702,543.608 718.702,542.941 C725.702,542.274 728.702,545.608 730.035,549.608 C731.369,553.607 730.035,572.941 726.702,575.941 C723.369,578.941 677.035,582.275 684.035,581.608 C691.035,580.941 650.035,587.895 643.369,587.084 C636.702,586.274 632.702,583.608 633.035,576.274 C633.369,568.941 672.035,490.941 680.702,471.274 C674.702,470.274 650.702,476.608 646.035,476.274 C641.369,475.941 638.369,472.274 637.369,464.941 C636.369,457.607 636.37,447.275 639.036,444.274 z" fill="#000000"/>
    <path d="M576.099,434.269 C588.119,434.601 599.459,437.696 609.702,443.941 C634.035,459.615 633.702,484.94 620.035,497.941 C611.335,505.735 600.369,511.73 588.714,513.573 C603.392,514.52 617.546,522.043 625.368,534.608 C637.035,554.608 625.035,573.608 605.702,583.608 C586.369,593.608 554.369,590.607 536.369,587.984 C534.702,585.274 539.369,466.274 546.385,439.607 C552.698,436.365 560.144,434.954 567.179,434.507 C570.147,434.319 573.126,434.348 576.099,434.269 z M567.143,528.581 L566.013,528.662 C564.43,534.412 562.216,567.978 563.382,569.061 C564.549,570.145 582.67,567.305 590.67,562.412 C598.67,557.519 600.336,551.579 593.67,541.912 C587.407,533.792 577.266,529.206 567.143,528.581 z M573.32,455.506 C570.333,455.559 571.569,455.461 569.604,455.667 C568.021,461.417 565.771,495.916 566.937,497 C568.104,498.084 581.52,495.559 589.52,490.667 C597.521,485.774 600.937,475.583 594.27,465.917 C589.022,459.072 581.821,455.944 573.32,455.506 z" fill="#000000"/>
  </g>
</svg>
